<?xml version="1.0" encoding="UTF-8" standalone="no"?>
<svg
   xmlns:dc="http://purl.org/dc/elements/1.1/"
   xmlns:cc="http://creativecommons.org/ns#"
   xmlns:rdf="http://www.w3.org/1999/02/22-rdf-syntax-ns#"
   xmlns:svg="http://www.w3.org/2000/svg"
   xmlns="http://www.w3.org/2000/svg"
   xmlns:sodipodi="http://sodipodi.sourceforge.net/DTD/sodipodi-0.dtd"
   xmlns:inkscape="http://www.inkscape.org/namespaces/inkscape"
   aria-hidden="true"
   focusable="false"
   data-prefix="fas"
   data-icon="flag-checkered"
   class="svg-inline--fa fa-flag-checkered fa-w-16"
   role="img"
   viewBox="0 0 512 512"
   id="svg2"
   version="1.1"
   inkscape:version="0.91 r13725"
   sodipodi:docname="flag.svg">
  <metadata
     id="metadata10">
    <rdf:RDF>
      <cc:Work
         rdf:about="">
        <dc:format>image/svg+xml</dc:format>
        <dc:type
           rdf:resource="http://purl.org/dc/dcmitype/StillImage" />
        <dc:title></dc:title>
      </cc:Work>
    </rdf:RDF>
  </metadata>
  <defs
     id="defs8" />
  <sodipodi:namedview
     pagecolor="#ffffff"
     bordercolor="#666666"
     borderopacity="1"
     objecttolerance="10"
     gridtolerance="10"
     guidetolerance="10"
     inkscape:pageopacity="0"
     inkscape:pageshadow="2"
     inkscape:window-width="1441"
     inkscape:window-height="859"
     id="namedview6"
     showgrid="false"
     inkscape:zoom="0.4609375"
     inkscape:cx="253.83051"
     inkscape:cy="256"
     inkscape:window-x="0"
     inkscape:window-y="0"
     inkscape:window-maximized="0"
     inkscape:current-layer="svg2" />
  <path
     d="m 245.89371,216.13251 0,41.0885 c 15.74757,3.55981 29.74542,9.41235 44.40694,13.45483 l 0,-41.14883 c -15.68723,-3.49946 -29.80574,-9.35201 -44.40694,-13.3945 z m 134.72925,-74.21269 c -20.69509,9.59334 -46.15668,19.24702 -70.59258,19.24702 -32.2795,0 -59.00815,-20.99676 -99.6743,-20.99676 -15.08389,0 -28.53872,2.65477 -41.02817,7.24026 1.6894,-4.40449 2.47375,-9.171 2.17208,-14.23918 -1.08605,-17.1353 -15.14422,-30.8918 -32.33984,-31.61582 -19.30738,-0.78436 -35.17561,14.66154 -35.17561,33.7879 0,11.46375 5.73186,21.60012 14.48051,27.69401 l 0,232.95549 c 0,8.02464 6.45591,14.48054 14.48054,14.48054 l 9.65368,0 c 8.02463,0 14.48053,-6.4559 14.48053,-14.48054 l 0,-56.95674 c 17.07496,-7.30059 38.37339,-13.33415 69.02386,-13.33415 32.33984,0 59.00815,20.99676 99.67429,20.99676 29.08174,0 52.31092,-9.83469 73.91104,-24.67724 5.24919,-3.62013 8.3263,-9.533 8.3263,-15.92857 l 0,-146.67568 c 0.0603,-14.05818 -14.60119,-23.4102 -27.39233,-17.4973 z m -179.1362,156.02769 c -15.56658,1.62905 -30.16777,4.94751 -44.40696,10.0157 l 0,-42.53655 c 15.80791,-5.61122 28.65937,-9.05034 44.40696,-10.4984 z m 177.6278,-81.1513 c -14.23918,5.91288 -27.93534,11.76543 -44.40695,14.42019 l 0,42.89857 c 14.96322,-2.05142 31.01246,-7.11959 44.40695,-15.68725 l 0,42.53656 c -15.14422,9.71402 -29.26272,14.90287 -44.40695,16.35092 l 0,-43.20023 c -16.29059,2.23241 -28.90072,0.90503 -44.40696,-3.37878 l 0,40.66614 c -14.42018,-4.46483 -28.5387,-10.07604 -44.40694,-12.85148 l 0,-41.32984 c -11.8861,-2.65475 -24.6169,-4.10281 -44.40695,-2.29275 l 0,-42.23487 c -13.51517,1.8704 -26.90966,6.15423 -44.40696,12.61013 l 0,-42.53655 c 20.03139,-7.36094 30.2281,-11.94643 44.40696,-13.27382 l 0,43.20024 c 16.2906,-2.23241 29.20239,-0.78436 44.40695,3.43912 l 0,-40.66614 c 14.29953,4.46483 28.47836,10.07604 44.40694,12.85148 l 0,41.26948 c 14.29954,3.1978 28.71972,4.16316 44.40696,1.62907 l 0,-43.38125 c 16.2906,-2.89611 31.55549,-8.20563 44.40695,-13.57549 z"
     id="path4"
     style="fill:#261a0d;fill-opacity:1"
     inkscape:connector-curvature="0" />
</svg>
