<?xml version="1.0" encoding="UTF-8" standalone="no"?>
<svg
   xmlns:dc="http://purl.org/dc/elements/1.1/"
   xmlns:cc="http://creativecommons.org/ns#"
   xmlns:rdf="http://www.w3.org/1999/02/22-rdf-syntax-ns#"
   xmlns:svg="http://www.w3.org/2000/svg"
   xmlns="http://www.w3.org/2000/svg"
   xmlns:sodipodi="http://sodipodi.sourceforge.net/DTD/sodipodi-0.dtd"
   xmlns:inkscape="http://www.inkscape.org/namespaces/inkscape"
   aria-hidden="true"
   data-prefix="fas"
   data-icon="bomb"
   class="svg-inline--fa fa-bomb fa-w-16"
   role="img"
   viewBox="0 0 360 360"
   id="svg2"
   version="1.1"
   inkscape:version="0.91 r13725"
   sodipodi:docname="mine.svg"
   width="360"
   height="360">
  <metadata
     id="metadata10">
    <rdf:RDF>
      <cc:Work
         rdf:about="">
        <dc:format>image/svg+xml</dc:format>
        <dc:type
           rdf:resource="http://purl.org/dc/dcmitype/StillImage" />
        <dc:title></dc:title>
      </cc:Work>
    </rdf:RDF>
  </metadata>
  <defs
     id="defs8" />
  <sodipodi:namedview
     pagecolor="#ffffff"
     bordercolor="#666666"
     borderopacity="1"
     objecttolerance="10"
     gridtolerance="10"
     guidetolerance="10"
     inkscape:pageopacity="0"
     inkscape:pageshadow="2"
     inkscape:window-width="1443"
     inkscape:window-height="861"
     id="namedview6"
     showgrid="false"
     inkscape:zoom="0.65186406"
     inkscape:cx="259.06812"
     inkscape:cy="256"
     inkscape:window-x="0"
     inkscape:window-y="0"
     inkscape:window-maximized="0"
     inkscape:current-layer="svg2" />
  <path
     d="m 266.48437,101.49248 -24.375,24.37976 12.42188,12.4243 c 4.40625,4.40711 4.40625,11.5335 0,15.89373 l -8.15625,8.15784 C 251.90625,174.58488 255,188.18129 255,202.48095 255,256.35085 211.35937,300 157.5,300 103.64063,300 60,256.39773 60,202.52784 c 0,-53.8699 43.64063,-97.51905 97.5,-97.51905 14.29688,0 27.89063,3.09436 40.125,8.62669 l 8.15625,-8.15785 c 4.40625,-4.40711 11.53125,-4.40711 15.89062,0 l 12.42188,12.4243 24.375,-24.37976 8.01562,7.97031 z m 27.89063,-13.36199 -11.25,0 c -3.09375,0 -5.625,2.53175 -5.625,5.6261 0,3.09436 2.53125,5.6261 5.625,5.6261 l 11.25,0 c 3.09375,0 5.625,-2.53174 5.625,-5.6261 0,-3.09435 -2.53125,-5.6261 -5.625,-5.6261 z M 266.25,60 c -3.09375,0 -5.625,2.53174 -5.625,5.6261 l 0,11.2522 c 0,3.09435 2.53125,5.6261 5.625,5.6261 3.09375,0 5.625,-2.53175 5.625,-5.6261 l 0,-11.2522 C 271.875,62.53174 269.34375,60 266.25,60 Z m 15.89062,25.78629 7.96875,-7.97031 c 2.20313,-2.20356 2.20313,-5.76675 0,-7.97031 -2.20312,-2.20355 -5.76562,-2.20355 -7.96875,0 l -7.96875,7.97031 c -2.20312,2.20356 -2.20312,5.76675 0,7.97031 2.25,2.20355 5.8125,2.20355 7.96875,0 z m -31.78125,0 c 2.20313,2.20355 5.76563,2.20355 7.96875,0 2.20313,-2.20356 2.20313,-5.76675 0,-7.97031 l -7.96875,-7.97031 c -2.20312,-2.20355 -5.76562,-2.20355 -7.96875,0 -2.20312,2.20356 -2.20312,5.76675 0,7.97031 l 7.96875,7.97031 z m 31.78125,15.94061 c -2.20312,-2.20356 -5.76562,-2.20356 -7.96875,0 -2.20312,2.20356 -2.20312,5.76675 0,7.97031 l 7.96875,7.9703 c 2.20313,2.20356 5.76563,2.20356 7.96875,0 2.20313,-2.20355 2.20313,-5.76675 0,-7.9703 l -7.96875,-7.97031 z M 112.5,187.52491 c 0,-16.55011 13.45313,-30.00586 30,-30.00586 4.125,0 7.5,-3.37566 7.5,-7.50147 0,-4.1258 -3.375,-7.50146 -7.5,-7.50146 -24.79687,0 -45,20.20707 -45,45.00879 0,4.1258 3.375,7.50146 7.5,7.50146 4.125,0 7.5,-3.37566 7.5,-7.50146 z"
     id="path4"
     inkscape:connector-curvature="0"
     style="fill:#261a0d;fill-opacity:1" />
</svg>
